HIERARCHY
ROOT Hips
{
  OFFSET 112.104 102.481 24.9468
  CHANNELS 6 Xposition Yposition Zposition Zrotation Xrotation Yrotation
  JOINT RightUpLeg
  {
    OFFSET -8.9458 -8.66707 0.101652
    CHANNELS 3 Zrotation Xrotation Yrotation
    JOINT RightLeg
    {
      OFFSET 0 -44.4227 1.3727
      CHANNELS 3 Zrotation Xrotation Yrotation
      JOINT RightFoot
      {
        OFFSET 0.253549 -42.0924 -1.46059
        CHANNELS 3 Zrotation Xrotation Yrotation
        JOINT RightToes
        {
          OFFSET 0.04 -4.41509 8.4991
          CHANNELS 3 Zrotation Xrotation Yrotation
          End Site
          {
            OFFSET -0.08 -0.137448 9.77979
          }
        }
      }
    }
  }
  JOINT Spine
  {
    OFFSET 0 11.8905 0
    CHANNELS 3 Zrotation Xrotation Yrotation
    JOINT Spine1
    {
      OFFSET 0 25.6574 0.127663
      CHANNELS 3 Zrotation Xrotation Yrotation
      JOINT HEad
      {
        OFFSET 0 8.73416 0.011341
        CHANNELS 3 Zrotation Xrotation Yrotation
        End Site
        {
          OFFSET -0.29 12.7742 2.51395
        }
      }
      JOINT LeftShoulder1
      {
        OFFSET 8.99 -0.362252 -0.22
        CHANNELS 3 Zrotation Xrotation Yrotation
        JOINT LeftArm
        {
          OFFSET 10.2827 -0.00338 0.322123
          CHANNELS 3 Zrotation Xrotation Yrotation
          JOINT LeftForeArm
          {
            OFFSET 32.7669 0.099144 -1.42434
            CHANNELS 3 Zrotation Xrotation Yrotation
            JOINT LeftHand
            {
              OFFSET 27.5643 0.085362 1.02216
              CHANNELS 3 Zrotation Xrotation Yrotation
              End Site
              {
                OFFSET 16.7443 -0.6 1.50291
              }
            }
          }
        }
      }
      JOINT RightShoulder
      {
        OFFSET -8.99 -0.362252 -0.22
        CHANNELS 3 Zrotation Xrotation Yrotation
        JOINT RightArm
        {
          OFFSET -10.2827 -0.00338 0.322123
          CHANNELS 3 Zrotation Xrotation Yrotation
          JOINT RightForeArm
          {
            OFFSET -32.8971 0.099144 -1.42434
            CHANNELS 3 Zrotation Xrotation Yrotation
            JOINT RightHand
            {
              OFFSET -27.4921 0.085362 1.02216
              CHANNELS 3 Zrotation Xrotation Yrotation
              End Site
              {
                OFFSET -16.6312 -0.6 1.50291
              }
            }
          }
        }
      }
    }
  }
  JOINT LeftUpLeg
  {
    OFFSET 8.9458 -8.66707 0.101652
    CHANNELS 3 Zrotation Xrotation Yrotation
    JOINT LeftLeg
    {
      OFFSET 0 -44.4227 1.3727
      CHANNELS 3 Zrotation Xrotation Yrotation
      JOINT LeftFoot
      {
        OFFSET -0.253549 -42.0924 -1.46059
        CHANNELS 3 Zrotation Xrotation Yrotation
        JOINT LeftToes
        {
          OFFSET -0.04 -4.41509 8.4991
          CHANNELS 3 Zrotation Xrotation Yrotation
          End Site
          {
            OFFSET 0.08 -0.047448 9.77979
          }
        }
      }
    }
  }
}
MOTION
Frames:	19
Frame Time:	0.0166667
110.564 101.871 11.3372 2.08834 -6.80778 177.577 5.83181 -7.94885 11.4834 3.01087 14.4665 -3.30667 0.5737 -10.8796 -0.158677 5.17301 -2.99495 -3.76511 1.50121 3.65045 -0.185499 16.3309 -11.6419 -2.13732 -14.115 4.60824 20.0162 3.97569e-016 -3.97569e-016 1.59028e-015 -59.0367 -74.3992 27.069 -3.69387 11.7244 5.96976 0.368473 9.90896 -0.00117928 4.65506 1.04591 4.81201 138.634 -51.6216 71.6814 -24.3944 2.94657 6.68155 -0.369625 9.91382 0.00119886 4.33934 -34.7193 -2.94119 -4.9135 23.8566 10.7459 -1.79146 4.55802 0.168276 0.361155 2.68444 -0.82791 
110.27 101.584 9.09499 2.16794 -6.8702 176.885 5.86632 -6.95125 11.3124 2.85383 15.197 -3.34839 0.894011 -11.8738 -0.135464 3.37745 -3.97683 -2.81154 2.13373 3.47752 -0.0448957 16.4801 -11.7488 -2.1043 -14.5819 4.30836 20.7161 -5.61567e-015 -3.97569e-016 1.59028e-015 -52.9639 -73.6801 34.1299 -3.77288 11.7308 6.00115 0.368473 9.90896 -0.00117928 3.64967 1.02652 5.30533 137.892 -50.1898 70.2161 -23.9644 3.0963 6.62614 -0.369625 9.91382 0.00119886 4.96764 -32.9503 -2.82692 -3.72411 14.8498 8.9532 -1.89189 5.56581 0.180102 3.29255 7.47483 -3.18177 
109.949 101.27 6.75747 2.30107 -6.79434 176.19 5.92366 -5.76416 10.9254 2.62476 15.9594 -3.3113 1.20744 -12.5805 -0.112521 1.13507 -5.32439 -1.63232 2.78973 3.25486 0.135564 16.6453 -11.8239 -2.04183 -15.0064 4.12001 21.3676 4.47266e-015 3.97569e-016 -0 -47.8673 -72.8274 40.1539 -3.79551 11.7365 6.01009 0.368473 9.90896 -0.00117928 2.71675 1.00569 5.75295 137.169 -48.9761 68.9091 -23.5284 3.2807 6.47398 -0.369625 9.91382 0.00119886 5.56813 -31.1873 -3.45534 -2.8976 6.72376 7.77268 -2.08235 6.36363 0.197924 6.54519 14.714 -6.28358 
109.558 100.876 4.308 2.57131 -6.38596 175.394 6.04016 -4.21992 10.4274 2.37477 16.9462 -2.64424 1.1306 -13.0705 -0.115984 0.310212 -6.90763 -1.53344 3.61189 2.9175 0.537576 16.8112 -11.4847 -1.82912 -15.33 3.87411 21.7001 5.76476e-015 0 -1.59028e-015 -44.493 -72.2059 44.2833 -3.63433 11.737 5.94591 0.368473 9.90896 -0.00117928 1.81726 0.929281 5.70531 136.471 -47.7553 67.7725 -23.0659 3.44968 6.33316 -0.369625 9.91382 0.00119886 6.03984 -30.4624 -5.64492 -1.53047 2.27123 8.41127 -2.64472 5.55216 0.234681 6.85359 26.4739 -9.96087 
109.143 100.516 1.82761 2.88781 -5.98379 174.681 6.11301 -2.65798 9.79681 2.1087 17.9101 -1.79754 1.059 -13.3456 -0.116857 -0.354947 -8.3368 -1.53004 4.31321 2.57873 0.923925 17.0156 -11.1252 -1.60009 -15.629 3.75331 21.9519 6.36111e-015 -7.95139e-016 -0 -41.6995 -71.5682 47.8279 -3.47894 11.7376 5.88404 0.368473 9.90896 -0.00117928 1.07071 0.848562 5.51468 135.963 -46.7066 66.9615 -22.713 3.56955 6.23973 -0.369625 9.91382 0.00119886 6.61114 -30.2008 -8.83597 -0.266987 -0.216468 10.5322 -3.05671 4.44597 0.260832 7.5156 35.8296 -13.5696 
108.743 100.317 -0.57197 3.1677 -5.95771 174.226 6.02355 -1.44459 9.01188 1.88969 18.5672 -1.1618 1.37164 -13.4458 -0.0850239 -1.75071 -8.92948 -0.770844 4.58792 2.31454 1.08735 17.3188 -11.0304 -1.45575 -16.0355 3.95537 22.3133 3.18055e-015 2.38542e-015 3.18055e-015 -38.999 -70.6213 51.4189 -3.49867 11.7428 5.89186 0.368473 9.90896 -0.00117928 0.590403 0.800849 5.40954 135.873 -45.9231 66.6832 -22.6546 3.56698 6.29927 -0.369625 9.91382 0.00119886 7.5825 -30.2146 -13.75 -0.0248288 -1.70806 15.603 -2.71266 3.98077 0.241231 8.1394 34.9849 -13.6003 
108.326 100.182 -2.99943 3.39976 -6.01763 173.956 5.80245 -0.342944 8.14839 1.71178 19.2259 -0.396202 1.73685 -13.3283 -0.0495203 -2.9256 -9.43373 -0.137372 4.60988 2.17244 1.12086 17.659 -11.1467 -1.36923 -16.3268 4.26288 22.6573 2.78299e-015 -1.59028e-015 -1.59028e-015 -36.5311 -69.5549 54.8699 -3.62681 11.7504 5.9428 0.368473 9.90896 -0.00117928 0.359697 0.774131 5.31168 135.955 -45.4577 66.6985 -22.7265 3.51063 6.41141 -0.369625 9.91382 0.00119886 8.39752 -30.2985 -17.4714 -0.321257 -1.76695 19.977 -2.15587 3.8938 0.20621 7.32241 30.2473 -11.643 
107.864 100.029 -5.53763 3.60572 -5.95446 173.848 5.44453 0.812555 7.20336 1.5836 20.1291 0.929881 1.88421 -12.9959 -0.0326033 -2.97164 -10.6256 -0.499478 4.45716 2.27778 1.09394 18.0778 -11.5615 -1.31703 -16.2414 4.46428 22.8533 4.17448e-015 7.95139e-016 -0 -34.1607 -68.4789 58.3502 -3.85569 11.7607 6.03379 0.368473 9.90896 -0.00117928 0.50193 0.764339 5.08228 135.996 -45.3538 66.9154 -22.7982 3.45884 6.47712 -0.369625 9.91382 0.00119886 8.77295 -30.6317 -16.3859 -1.29895 0.155789 19.6172 -1.82796 4.19383 0.180678 4.19543 25.0582 -8.62693 
107.383 99.9463 -8.1523 3.63363 -5.89635 173.938 4.93434 1.86707 6.39966 1.41291 21.1703 2.19214 2.00843 -12.353 -0.0246447 -2.73025 -11.7485 -1.05734 4.11999 2.47278 0.869523 18.3182 -12.137 -1.39163 -16.0064 4.74832 23.0989 2.78299e-015 0 1.59028e-015 -31.9785 -67.3016 61.6482 -4.17754 11.7702 6.16165 0.368473 9.90896 -0.00117928 0.710367 0.784945 5.13164 136.248 -45.6977 67.2376 -22.9517 3.36933 6.59804 -0.369625 9.91382 0.00119886 8.67154 -30.8889 -13.1711 -2.22301 2.56608 17.2574 -1.4229 5.002 0.145486 0.868711 19.3914 -5.57012 
106.902 100.006 -10.8649 3.26184 -5.91692 174.241 4.15113 2.77896 6.11114 1.17865 22.2228 2.82214 2.16804 -11.3035 -0.0218172 -2.60222 -12.449 -1.40605 3.60714 2.58372 0.259532 18.0026 -12.6903 -1.72386 -15.7995 5.27837 23.6272 1.98785e-016 -1.59028e-015 -1.59028e-015 -30.1115 -65.8507 64.6107 -4.67683 11.7765 6.35973 0.368473 9.90896 -0.00117928 0.574426 0.855049 6.04894 137.011 -46.6441 67.5401 -23.2915 3.21541 6.83087 -0.369625 9.91382 0.00119886 7.65313 -30.5076 -8.62526 -2.17665 3.60659 13.7994 -0.551742 6.90234 0.0691057 -2.72732 13.2459 -2.6321 
106.416 100.166 -13.591 2.72154 -5.96953 174.789 3.31715 3.36611 5.88222 0.847861 23.6446 3.02555 2.50218 -9.85205 -0.0287782 -2.81117 -12.3004 -1.19528 2.94876 2.7831 -0.513825 17.5112 -13.4422 -2.18018 -15.5364 5.90543 24.2096 1.19271e-015 7.95139e-016 -1.59028e-015 -28.2778 -64.5399 67.286 -5.06904 11.777 6.51533 0.368473 9.90896 -0.00117928 0.521978 0.952464 7.15894 137.995 -48.0443 67.9423 -23.6152 3.00882 7.21129 -0.369625 9.91382 0.00119886 6.21321 -29.9823 -4.96515 -2.18387 4.75539 10.489 0.101858 8.51501 0.0129744 -3.75439 10.6472 -1.75095 
105.931 100.431 -16.2479 2.20773 -6.05187 175.685 2.73127 3.43513 5.33574 0.329539 25.7283 2.8361 3.32822 -7.96368 -0.0416098 -4.25516 -11.1512 0.175 2.12539 3.24378 -1.30437 17.1838 -14.7194 -2.67734 -15.1442 6.63095 24.7095 -3.18055e-015 0 -0 -25.75 -63.7345 70.1164 -5.01957 11.766 6.4959 0.368473 9.90896 -0.00117928 1.06115 1.07633 7.89884 139.03 -49.887 68.6846 -23.7254 2.71578 7.8941 -0.369625 9.91382 0.00119886 5.13904 -30.1686 -5.26536 -3.26128 7.33523 9.0828 -0.358148 8.2015 0.059967 3.25421 19.6181 -7.2183 
105.436 100.737 -18.8518 1.60934 -6.10208 176.73 2.0966 2.98361 4.6097 -0.166705 28.5272 2.18059 4.17382 -5.66104 -0.0817593 -5.64291 -7.79966 2.29731 1.31515 3.79129 -2.07344 16.7522 -16.0216 -3.20183 -14.7297 7.18473 25.075 -5.1684e-015 0 1.59028e-015 -23.4139 -63.3804 72.3288 -4.76309 11.7511 6.39435 0.368473 9.90896 -0.00117928 1.55256 1.1844 8.52037 140.129 -51.9059 69.3686 -23.7038 2.44661 8.57841 -0.369625 9.91382 0.00119886 3.91197 -30.3811 -7.39495 -4.54161 10.0444 9.05602 -0.935989 7.32183 0.117412 12.5546 27.5969 -13.2658 
104.907 101.026 -21.4048 0.869139 -6.00896 177.771 1.11096 1.96327 3.75996 -0.181756 32.2497 0.543944 4.51223 -2.77307 -0.178367 -6.36973 -0.962157 5.22892 0.754499 4.30454 -2.69817 16.0816 -16.9137 -3.68937 -14.4022 7.20189 25.1242 -4.96962e-015 -1.59028e-015 -3.18055e-015 -22.0465 -63.7295 73.0932 -4.34803 11.7373 6.22967 0.368473 9.90896 -0.00117928 1.39254 1.22306 9.10548 141.06 -53.8809 69.3518 -23.5329 2.32468 8.97364 -0.369625 9.91382 0.00119886 2.17342 -30.0171 -10.8274 -5.60583 11.8177 11.2972 -0.705698 6.85966 0.0997096 11.8412 22.2858 -10.8979 
104.38 101.283 -23.8664 -0.00106799 -5.92097 178.767 0.0183279 0.314559 2.66507 -0.204798 36.6872 -0.918 4.84425 0.153912 -0.304019 -6.79489 9.09392 8.36786 0.208399 4.79801 -3.28285 15.1894 -17.5316 -4.18342 -14.0472 6.98384 25.0905 1.98785e-016 1.59028e-015 -0 -21.2671 -64.426 73.0699 -3.99855 11.7257 6.09098 0.368473 9.90896 -0.00117928 0.988445 1.22629 9.60041 141.903 -55.702 68.9623 -23.3476 2.27419 9.20427 -0.369625 9.91382 0.00119886 0.278093 -29.3256 -13.7774 -6.46986 13.165 13.308 -0.359139 6.30558 0.0694047 9.87546 14.2188 -7.30553 
103.885 101.466 -26.1796 -1.04582 -5.98016 179.652 -1.12062 -2.15294 1.20159 -1.19318 41.9823 -0.695219 5.68635 2.66596 -0.456967 -6.64668 25.4768 12.2401 -0.525009 5.24004 -3.90801 14.0057 -17.8172 -4.71503 -13.5994 6.71478 25.158 -5.96354e-016 1.59028e-015 -1.59028e-015 -21.2808 -65.0994 72.3689 -4.06362 11.722 6.1169 0.368473 9.90896 -0.00117928 0.390578 1.19286 10.0086 142.733 -57.1627 68.2134 -23.2299 2.27389 9.30225 -0.369625 9.91382 0.00119886 -1.74117 -28.5054 -13.672 -6.46561 14.3369 12.0412 -0.370403 5.45786 0.0682039 11.0027 11.3026 -6.63499 
103.418 101.599 -28.3957 -2.11798 -6.09863 -179.635 -2.22449 -5.09014 -0.582113 -3.22964 47.4272 0.71625 6.43494 4.65699 -0.591475 -7.13997 39.1064 16.0114 -1.30374 5.64712 -4.52203 12.6539 -17.9176 -5.25706 -13.0374 6.37298 25.3027 -9.93923e-016 2.38542e-015 -1.59028e-015 -21.5329 -65.918 71.3298 -4.21676 11.7179 6.17781 0.368473 9.90896 -0.00117928 0.0620517 1.17424 10.2406 143.517 -58.2939 67.5752 -23.3094 2.2845 9.25435 -0.369625 9.91382 0.00119886 -3.69624 -27.6265 -12.6077 -6.14136 15.3873 9.84258 -0.461556 4.3771 0.0724031 12.1033 9.93589 -6.50412 
102.991 101.675 -30.5494 -3.12015 -6.24059 -179.209 -3.16847 -8.20775 -3.0069 -7.02975 52.2968 3.57724 6.49749 5.87413 -0.651864 -3.4249 39.8296 13.0203 -2.04313 6.00268 -5.1287 11.1265 -17.9335 -5.82752 -12.2525 5.97137 25.6159 1.59028e-015 -1.59028e-015 1.59028e-015 -21.364 -66.9132 70.5195 -4.26699 11.7053 6.19796 0.368473 9.90896 -0.00117928 0.599096 1.24075 10.2211 144.351 -58.9864 67.7154 -23.8205 2.2603 9.00917 -0.369625 9.91382 0.00119886 -5.28224 -26.8327 -11.8234 -6.07157 16.5104 8.12251 -0.502541 2.96916 0.0706694 11.6563 9.34495 -6.14523 
102.6 101.742 -32.6344 -3.96578 -6.39258 -178.97 -3.97087 -11.4729 -5.15149 -11.6577 56.5652 7.43499 6.32232 6.3042 -0.660944 0.906991 36.3284 8.40968 -2.77504 6.37498 -5.64196 9.72776 -17.9461 -6.32914 -11.4353 5.59201 25.9354 3.97569e-016 1.59028e-015 3.18055e-015 -21.1543 -68.1535 69.5297 -4.15697 11.6897 6.15436 0.368473 9.90896 -0.00117928 1.64986 1.33406 9.91049 145.265 -59.4946 68.4644 -24.5293 2.19932 8.71307 -0.369625 9.91382 0.00119886 -6.54389 -26.0047 -11.1653 -6.0454 17.4746 6.77102 -0.525997 1.49665 0.0674643 10.8136 8.65538 -5.61902 
